# xmcd
#
# Track frame offsets: 
#        150
#        21572
#        45690
#        55750
#        73355
#        107443
#        127776
#        154629
#        170487
#        193696
#
# Disc length: 3132 seconds
#
# Revision: 2
# Processed by: cddbd v1.5.2PL0 Copyright (c) Steve Scherf et al.
# Submitted via: ExactAudioCopy v0.95b3
#
DISCID=850c3a0a
DTITLE=Lynyrd Skynyrd - Playlist Plus
DYEAR=2008
DGENRE=Rock
TTITLE0=Sweet Home Alabama
TTITLE1=Mr. Banker
TTITLE2=Down South Junkin'
TTITLE3=I Ain't The One
TTITLE4=Tuesday's Gone
TTITLE5=Gimme Three Steps
TTITLE6=Simple Man
TTITLE7=Swamp Music
TTITLE8=Call Me The Breeze
TTITLE9=Free Bird
EXTD=
EXTT0=
EXTT1=
EXTT2=
EXTT3=
EXTT4=
EXTT5=
EXTT6=
EXTT7=
EXTT8=
EXTT9=
PLAYORDER=
